<svg aria-hidden="true" style="position:absolute;width:0;height:0;overflow:hidden" xmlns="http://www.w3.org/2000/svg"><defs><symbol id="facebook" viewBox="0 0 32 32"><path d="M21.3 5.3h3v-5C23.7.1 22 0 20 0c-4.2 0-7.1 2.6-7.1 7.5V12H8.2v5.7H13V32h5.7V17.7h4.5l.7-5.7h-5.2V8c0-1.6.4-2.7 2.7-2.7z"/></symbol><symbol id="instagram" viewBox="0 0 32 32"><path d="M23.1688 0H8.8306C3.96141 0 0 3.9616 0 8.83079V23.169C0 28.0384 3.96141 31.9998 8.8306 31.9998H23.1688C28.0384 31.9998 31.9998 28.0382 31.9998 23.169V8.83079C32 3.9616 28.0384 0 23.1688 0ZM29.1608 23.169C29.1608 26.4729 26.4729 29.1606 23.169 29.1606H8.8306C5.52693 29.1608 2.83918 26.4729 2.83918 23.169V8.83079C2.83918 5.52712 5.52693 2.83918 8.8306 2.83918H23.1688C26.4727 2.83918 29.1606 5.52712 29.1606 8.83079V23.169H29.1608Z"/><path d="M15.9999 7.75482C11.4533 7.75482 7.75439 11.4537 7.75439 16.0004C7.75439 20.5468 11.4533 24.2455 15.9999 24.2455C20.5466 24.2455 24.2455 20.5468 24.2455 16.0004C24.2455 11.4537 20.5466 7.75482 15.9999 7.75482ZM15.9999 21.4062C13.019 21.4062 10.5936 18.9811 10.5936 16.0002C10.5936 13.019 13.0188 10.5938 15.9999 10.5938C18.9811 10.5938 21.4063 13.019 21.4063 16.0002C21.4063 18.9811 18.9809 21.4062 15.9999 21.4062Z"/><path d="M24.5913 5.34735C24.0443 5.34735 23.507 5.56881 23.1206 5.95683C22.7324 6.34296 22.5093 6.88051 22.5093 7.42942C22.5093 7.97662 22.7326 8.51398 23.1206 8.902C23.5068 9.28813 24.0443 9.51148 24.5913 9.51148C25.1402 9.51148 25.6759 9.28813 26.0639 8.902C26.4519 8.51398 26.6734 7.97643 26.6734 7.42942C26.6734 6.88051 26.4519 6.34296 26.0639 5.95683C25.6778 5.56881 25.1402 5.34735 24.5913 5.34735Z"/></symbol><symbol id="twitter" viewBox="0 0 32 32"><path d="M32 6c-1.2.6-2.5 1-3.8 1.1 1.4-.8 2.4-2 3-3.6-1.4.7-2.8 1.3-4.3 1.6a6.6 6.6 0 0 0-11.2 4.7l.1 1.3A18.6 18.6 0 0 1 2.2 4.2a6.6 6.6 0 0 0 2 8.8c-1 0-2-.4-3-.8 0 3.2 2.4 5.9 5.3 6.5a6.4 6.4 0 0 1-3 0 6.6 6.6 0 0 0 6.2 4.6 13.1 13.1 0 0 1-9.8 2.8H0A18.5 18.5 0 0 0 28.7 9.4v.1c1.3-1 2.4-2 3.3-3.4z"/></symbol></defs></svg>